<svg xmlns="http://www.w3.org/2000/svg" xmlns:xlink="http://www.w3.org/1999/xlink" style="display:none!important"><defs><path d="M33.546 14.454c5.272 5.272 5.272 13.82 0 19.092-5.272 5.272-13.82 5.272-19.092 0-5.272-5.272-5.272-13.82 0-19.092 5.272-5.272 13.82-5.272 19.092 0" id="a"/></defs><symbol id="icon-Portal Enter" viewBox="0 0 512 512"><path d="M416 0c-38.688 0-83.877 34.868-93.904 188.813l-.002-.006a88.194 88.194 0 00-64.813-60.232l-78.25-17.703a87.466 87.466 0 00-73.25 16.218l-48.375 37.358c-10.49 8.11-12.421 23.188-4.312 33.679 8.11 10.49 23.187 12.42 33.678 4.312l.01-.007 48.374-37.374a40.342 40.342 0 0133.313-7.375l14.875 3.375-35.313 87.341c-10.393 25.497-.624 54.762 23 68.904l83.781 50.592a8.843 8.843 0 013.844 6.844 8.72 8.72 0 01-.312 2.203l-33.281 104.466c-3.654 12.727 3.7 26.005 16.427 29.66l.041.01c2.157.604 4.386.914 6.625.923a23.987 23.987 0 0023.063-17.422l33.312-104.466c6.908-24.309-3.289-50.236-24.906-63.326l-51.844-31.296 41.938-104.794a39.094 39.094 0 016.406 12.062l13.969 45.937c7.219 23.67 28.687 39.045 53.406 39.139l48.406.156H392c13.221.008 23.956-10.684 24-23.905.062-13.266-10.656-23.484-23.938-23.53l-23.88-.085C370.019 132.875 390.699 47.998 416 47.998c26.51 0 48 93.122 48 207.994s-21.49 207.994-48 207.994c-21.354 0-39.428-60.459-45.66-143.996h-48.438c6.112 98.194 28.971 191.994 94.098 191.994 43.795 0 96-44.413 96-255.992C512 139.208 495.346 0 416 0zM272.156 95.997c26.509-.018 47.984-21.522 47.966-48.031C320.104 21.457 298.599-.018 272.09 0c-26.496.018-47.965 21.503-47.965 48v-.001c.016 26.514 21.515 48 48.03 48zm-146 220.853l-19.844 46.28a8.013 8.013 0 01-7.344 4.86H24c-13.255 0-24 10.744-24 23.998 0 13.255 10.745 24 24 24h74.968a55.996 55.996 0 0051.5-33.937L164 350.443l-9.563-5.766a87.558 87.558 0 01-28.281-27.827z"/></symbol><symbol id="icon-Portal Exit" viewBox="0 0 512 512"><path d="M368.156 95.997c26.509-.018 47.984-21.522 47.966-48.031C416.104 21.457 394.599-.018 368.09 0c-26.496.018-47.966 21.502-47.966 47.998.016 26.515 21.515 48 48.03 48zm119.906 143.995l-48.406-.172a7.912 7.912 0 01-7.594-5.655l-13.969-45.358a88.195 88.195 0 00-64.812-60.233l-78.25-17.703a87.467 87.467 0 00-73.25 16.219l-16.785 12.963C174.359 63.172 149.423 0 96 0 52.205 0 0 44.41 0 255.992c0 116.78 16.656 255.992 96 255.992 24.632 0 51.927-14.053 71.095-63.998h-52.63c-5.686 10.279-11.92 16-18.465 16-26.51 0-48-93.123-48-207.994S69.49 47.998 96 47.998s48 93.123 48 207.994c0 41.446-2.946 79.59-7.776 111.996H120c-13.255-.012-24.01 10.723-24.022 23.977-.012 13.255 10.723 24.01 23.978 24.022a24 24 0 00.044 0h74.968a55.997 55.997 0 0051.5-33.937L260 350.442l-9.562-5.766a87.556 87.556 0 01-28.281-27.827l-19.844 46.28a8.012 8.012 0 01-7.344 4.859h-9.459c4.059-30.835 6.49-67.5 6.49-111.996 0-19.431-.523-39.476-1.658-59.403l40.815-31.532a40.34 40.34 0 0133.312-7.375l14.875 3.375-35.312 87.34c-10.393 25.498-.624 54.763 23 68.905l83.78 50.592a8.843 8.843 0 013.845 6.844 8.721 8.721 0 01-.313 2.203l-33.281 104.466c-3.654 12.726 3.7 26.005 16.427 29.659l.042.012c2.157.602 4.385.913 6.625.922a23.987 23.987 0 0023.062-17.422l33.313-104.465c6.908-24.31-3.29-50.236-24.907-63.326l-51.843-31.296 41.937-104.794a39.095 39.095 0 016.406 12.062l13.97 45.373c7.093 23.567 28.794 39.7 53.406 39.702l48.406.157H488c13.255-.004 23.997-10.752 23.994-24.006-.004-13.226-10.706-23.956-23.931-23.993z"/></symbol><symbol id="icon-Search" viewBox="0 0 512 512"><path d="M508.5 468.9L387.1 347.5c-2.3-2.3-5.3-3.5-8.5-3.5h-13.2c31.5-36.5 50.6-84 50.6-136C416 93.1 322.9 0 208 0S0 93.1 0 208s93.1 208 208 208c52 0 99.5-19.1 136-50.6v13.2c0 3.2 1.3 6.2 3.5 8.5l121.4 121.4c4.7 4.7 12.3 4.7 17 0l22.6-22.6c4.7-4.7 4.7-12.3 0-17zM208 368c-88.4 0-160-71.6-160-160S119.6 48 208 48s160 71.6 160 160-71.6 160-160 160z"/></symbol><symbol id="icon-sun-with-face" viewBox="0 0 48 48"><path opacity=".15" d="M32.132 45.44c4.49.585 4.49 1.535 0 2.12-4.491.586-11.773.586-16.264 0-4.49-.585-4.49-1.535 0-2.12 4.491-.586 11.773-.586 16.264 0" fill="#45413C"/><use fill="#FFE500" xlink:href="#a"/><path d="M25.28 10.56c6.867.707 11.861 6.847 11.154 13.714-.707 6.868-6.847 11.861-13.714 11.155-6.867-.707-11.861-6.847-11.154-13.715A12.5 12.5 0 0122.72 10.56c-7.422.707-12.866 7.297-12.16 14.72.708 7.421 7.298 12.865 14.72 12.158 7.422-.707 12.866-7.297 12.16-14.719A13.5 13.5 0 0025.28 10.56z" fill="#EBCB00"/><use fill="none" stroke="#45413C" stroke-linecap="round" stroke-linejoin="round" xlink:href="#a"/><path d="M25.5 3a1.5 1.5 0 00-3 0v3a1.5 1.5 0 003 0zM10.21 8.09a1.5 1.5 0 00-2.12 2.12l2.12 2.12a1.5 1.5 0 002.12-2.12zM3 22.5a1.5 1.5 0 000 3h3a1.5 1.5 0 000-3zm5.09 15.29a1.5 1.5 0 002.12 2.12l2.12-2.12a1.5 1.5 0 00-2.12-2.12zM22.5 45a1.5 1.5 0 003 0v-3a1.5 1.5 0 00-3 0zm15.29-5.09a1.5 1.5 0 002.12-2.12l-2.12-2.12a1.5 1.5 0 00-2.12 2.12zM45 25.5a1.5 1.5 0 000-3h-3a1.5 1.5 0 000 3zm-5.09-15.29a1.5 1.5 0 00-2.12-2.12l-2.12 2.12a1.5 1.5 0 002.12 2.12z" stroke-linecap="round" stroke="#45413C" fill="#FFE500" stroke-linejoin="round"/><path fill="#FFAA54" d="M14 27c0 .55.67 1 1.5 1s1.5-.45 1.5-1-.67-1-1.5-1-1.5.45-1.5 1z"/><g stroke-linecap="round" stroke="#45413C" fill="#FFB0CA" stroke-linejoin="round"><path d="M27.87 29.5a1 1 0 011 1.25 5 5 0 01-9.68 0 1 1 0 011-1.25z"/><path fill="#FF87AF" d="M24 34.5a5 5 0 003.94-1.94A7.34 7.34 0 0024 31.5a7.34 7.34 0 00-3.94 1.06A5 5 0 0024 34.5z"/><path fill="none" d="M15 25a1.5 1.5 0 013 0"/></g><path fill="#FFAA54" d="M34 27c0 .55-.67 1-1.5 1s-1.5-.45-1.5-1 .67-1 1.5-1 1.5.45 1.5 1z"/><path d="M33 25a1.5 1.5 0 00-3 0" stroke-linecap="round" stroke="#45413C" fill="none" stroke-linejoin="round"/><path fill="#FFF48C" d="M26.828 12.793c1.562.39 1.562 1.024 0 1.414-1.562.39-4.094.39-5.656 0-1.563-.39-1.563-1.024 0-1.414 1.562-.39 4.094-.39 5.656 0"/></symbol></svg>