<svg height="314" width="316" xmlns="http://www.w3.org/2000/svg" xmlns:xlink="http://www.w3.org/1999/xlink"><linearGradient id="a" x1="50%" x2="50%" y1="0%" y2="99.789%"><stop offset="0" stop-color="#09203f"/><stop offset="1"/></linearGradient><g fill="none" fill-rule="evenodd"><path d="m269.734 45.984c61.705 61.313 61.705 160.72 0 222.032-61.706 61.312-161.75 61.312-223.455 0-61.705-61.313-61.705-160.72 0-222.032 61.706-61.312 161.75-61.312 223.455 0" fill="#09203f" fill-rule="nonzero"/><path d="m231.838 98.664s-4.74-16.68.908-27.082l-8.492-6.751c-9.007 7.85-26.427 6.712-26.427 6.712l34.01 27.121z" fill="#c0dceb" fill-rule="nonzero"/><path d="m230.26 83.532a25.58 25.58 0 0 1 2.698-11.514l-8.41-6.601a26.665 26.665 0 0 1 -10.834 5.027l16.545 13.088z" fill="#e8f4fa" fill-rule="nonzero"/><path d="m231.838 98.664s-4.74-16.68.908-27.082l-8.492-6.751c-9.007 7.85-26.427 6.712-26.427 6.712l34.01 27.121z" stroke="#191816" stroke-linecap="round" stroke-linejoin="round"/><g fill-rule="nonzero"><g fill="#c0dceb" stroke="#191816" stroke-linecap="round" stroke-linejoin="round" transform="translate(33.424 137.878)"><path d="m11.586 22.583v-10.802"/><path d="m29.758.978h-29.005v10.763h27.474c.289-3.615.8-7.21 1.53-10.763zm-1.766 21.605h-21.822v10.802h22.764a89.772 89.772 0 0 1 -.942-10.802z"/></g><path d="m224.92 90.792c37.235 37.017 37.235 97.034 0 134.051-37.235 37.018-97.605 37.018-134.84 0-37.236-37.017-37.236-97.034 0-134.051 37.235-37.018 97.605-37.018 134.84 0" fill="#3b4252"/><path d="m250.045 164.045c-11.266 50.86-62.06 83.051-113.451 71.901-36.321-7.88-64.69-35.955-72.652-71.901-.474 2.265-.79 4.57-1.145 6.873 7.55 51.486 55.842 87.167 107.865 79.696 41.711-5.99 74.475-38.415 80.528-79.696-.316-2.187-.632-4.608-1.145-6.873z" fill="#2e3440"/><path d="m156.994 102.78c44.742.012 83.435 30.957 92.961 74.348a92.778 92.778 0 0 0 2.248-20.23c0-52.191-42.627-94.5-95.21-94.5-52.582 0-95.208 42.309-95.208 94.5v-.001a95.275 95.275 0 0 0 2.247 20.231c9.527-43.392 48.22-74.336 92.961-74.348z" fill="#434c5e"/><path d="m102.997 59.78h21.546a12.69 12.69 0 0 0 11.147-6.672c.225-.521.409-1.06.551-1.609-11.525-24.534-33.026-42.989-59.083-50.711h-14.456c-6.962 0-12.605 5.623-12.605 12.56s5.643 12.56 12.605 12.56c5.558-.347 10.346 3.862 10.694 9.4.347 5.54-3.876 10.31-9.434 10.657-.42.026-.84.026-1.26 0h-37.774c-13.912.548-24.744 12.23-24.193 26.093.52 13.094 11.052 23.59 24.193 24.108h21.427v11.775c-.022 3.12 2.5 5.67 5.632 5.691h.12c3.11 0 5.632 2.513 5.632 5.612v6.908a4.424 4.424 0 0 1 -.827 3.023c-5.265 6.49-4.252 16.005 2.262 21.251a15.198 15.198 0 0 0 9.554 3.359h6.775c16.386 0 21.428-15.072 21.428-22.608v-25.081a13.613 13.613 0 0 1 7.326-12.129 20.12 20.12 0 0 0 9.65-17.113.865.865 0 0 0 -.866-.902h-9.847c-2.77 0-5.02-2.226-5.042-4.985v-6.28a5.033 5.033 0 0 1 4.845-4.906z" fill="url(#a)" transform="translate(107.363 65.417)"/><path d="m169.608 92.023c5.552-.022 10.07 4.471 10.091 10.035v.04a10.29 10.29 0 0 1 -.867 3.95 94.528 94.528 0 0 1 39.42 19.753h13.127a12.69 12.69 0 0 0 11.156-6.716c.225-.525.41-1.066.552-1.62-11.535-24.694-33.053-43.269-59.13-51.042h-14.35c-6.966 0-12.613 5.66-12.613 12.642s5.647 12.642 12.614 12.642z" fill="#09203f"/></g><g stroke-linejoin="round" transform="translate(27.347 41.263)"><g stroke="#191816"><path d="m196.958 49.003c37.293 37.002 37.293 96.992 0 133.994-37.294 37.001-97.76 37.001-135.054 0-37.293-37.001-37.293-96.992 0-133.994 37.294-37 97.76-37 135.054 0"/><path d="m182.498 84.3h21.63c4.683-.013 8.98-2.574 11.191-6.67.226-.521.41-1.06.554-1.608-11.57-24.524-33.156-42.97-59.315-50.69h-14.512c-6.989 0-12.654 5.621-12.654 12.555s5.665 12.555 12.654 12.555c5.58-.347 10.386 3.86 10.735 9.396.35 5.536-3.89 10.305-9.47 10.652-.422.026-.844.026-1.266 0h-37.921c-13.967.548-24.84 12.225-24.288 26.081.522 13.089 11.096 23.58 24.288 24.098h21.511v11.77c-.022 3.12 2.51 5.667 5.654 5.689h.12c3.122 0 5.654 2.511 5.654 5.61v6.905a4.408 4.408 0 0 1 -.83 3.02c-5.285 6.489-4.269 15.999 2.27 21.243a15.3 15.3 0 0 0 9.593 3.357h6.801c16.45 0 21.512-15.066 21.512-22.599v-25.07c-.024-5.087 2.813-9.762 7.355-12.122 6.001-3.649 9.668-10.123 9.688-17.106a.866.866 0 0 0 -.87-.902h-9.886c-2.78 0-5.04-2.225-5.062-4.983v-6.277c.061-2.653 2.192-4.801 4.864-4.904z"/><path d="m104.835 23.606c-9.292-1.136-21.788-23.186-21.788-23.186s7.276 24.246 1.7 31.66" stroke-linecap="round"/><path d="m86.843 22.351 9.451-4.002" stroke-linecap="round"/><path d="m123.974 221.615c0 2.99 2.443 5.414 5.457 5.414s5.457-2.424 5.457-5.414v-10.868h-10.914z" fill="#c0dceb" fill-rule="nonzero" stroke-linecap="round"/><path d="m153.988 199.92c0-2.991-2.444-5.415-5.457-5.415h-25.862a11.271 11.271 0 0 0 -8.304 3.61 5.396 5.396 0 0 1 -3.954 1.804c-4.26-.006-8.129 2.466-9.886 6.317a95.592 95.592 0 0 0 28.985 4.511 96.734 96.734 0 0 0 31.635-5.414h-1.582c-3.013.065-5.509-2.305-5.574-5.295l-.001-.119z" fill="#fff" fill-rule="nonzero" stroke-linecap="round"/></g><path d="m200.965 111.763c-15.817 10.514-33.85 21.342-53.304 31.896-72.958 39.586-138.402 60.183-146.311 46.021-2.294-4.158.672-10.867 7.908-19.263" stroke="#ff6242" stroke-dasharray=".06" stroke-linecap="round" stroke-width="2.4"/><path d="m254.309 81.828 9.213 11.181a2.743 2.743 0 0 0 3.834.436 2.7 2.7 0 0 0 1.03-2.044l.751-21.54 10.558-8.552a5.425 5.425 0 0 0 .791-7.846c-1.97-2.244-5.396-2.49-7.671-.55l-10.598 8.553-21.432-3.61a2.727 2.727 0 0 0 -3.195 2.147c-.156.798.06 1.624.585 2.248l9.214 11.181-8.423 6.944-11.507-1.177 8.62 10.476 8.62 10.318 1.187-11.417z" fill="#fff" fill-rule="nonzero" stroke="#191816"/></g></g></svg>