<svg viewBox="0 0 24 24" xmlns="http://www.w3.org/2000/svg"><g stroke-linecap="round" stroke-width="1.5" stroke="#000" fill="none" stroke-linejoin="round"><path d="M9.75 23.254h-6a1.5 1.5 0 0 1-1.5-1.5v-19.5a1.5 1.5 0 0 1 1.5-1.5h10.5a1.5 1.5 0 0 1 1.5 1.5V7.5"/><path d="M5.625 11.629A.375.375 0 1 0 6 12a.375.375 0 0 0-.375-.375m8.625 11.629a1.5 1.5 0 0 1-1.5-1.5v-4.5a1.5 1.5 0 0 1 1.5-1.5h6a1.5 1.5 0 0 1 1.5 1.5v4.5a1.5 1.5 0 0 1-1.5 1.5z"/><path d="M14.25 15.754v-1.5a3 3 0 0 1 6 0v1.5m-3 3.375a.375.375 0 1 0 .375.375.375.375 0 0 0-.375-.375"/></g></svg>