<svg viewBox="0 0 512 512" xmlns="http://www.w3.org/2000/svg"><path d="M368.156 95.997c26.509-.018 47.984-21.522 47.966-48.031C416.104 21.457 394.599-.018 368.09 0c-26.496.018-47.966 21.502-47.966 47.998.016 26.515 21.515 48 48.03 48zm119.906 143.995l-48.406-.172a7.912 7.912 0 0 1-7.594-5.655l-13.969-45.358a88.195 88.195 0 0 0-64.812-60.233l-78.25-17.703a87.467 87.467 0 0 0-73.25 16.219l-16.785 12.963C174.359 63.172 149.423 0 96 0 52.205 0 0 44.41 0 255.992c0 116.78 16.656 255.992 96 255.992 24.632 0 51.927-14.053 71.095-63.998h-52.63c-5.686 10.279-11.92 16-18.465 16-26.51 0-48-93.123-48-207.994S69.49 47.998 96 47.998s48 93.123 48 207.994c0 41.446-2.946 79.59-7.776 111.996H120c-13.255-.012-24.01 10.723-24.022 23.977-.012 13.255 10.723 24.01 23.978 24.022a24 24 0 0 0 .044 0h74.968a55.997 55.997 0 0 0 51.5-33.937L260 350.442l-9.562-5.766a87.556 87.556 0 0 1-28.281-27.827l-19.844 46.28a8.012 8.012 0 0 1-7.344 4.859h-9.459c4.059-30.835 6.49-67.5 6.49-111.996 0-19.431-.523-39.476-1.658-59.403l40.815-31.532a40.34 40.34 0 0 1 33.312-7.375l14.875 3.375-35.312 87.34c-10.393 25.498-.624 54.763 23 68.905l83.78 50.592a8.843 8.843 0 0 1 3.845 6.844 8.721 8.721 0 0 1-.313 2.203l-33.281 104.466c-3.654 12.726 3.7 26.005 16.427 29.659l.042.012c2.157.602 4.385.913 6.625.922a23.987 23.987 0 0 0 23.062-17.422l33.313-104.465c6.908-24.31-3.29-50.236-24.907-63.326l-51.843-31.296 41.937-104.794a39.095 39.095 0 0 1 6.406 12.062l13.97 45.373c7.093 23.567 28.794 39.7 53.406 39.702l48.406.157h.093c13.255-.004 23.997-10.752 23.994-24.006-.004-13.226-10.706-23.956-23.931-23.993z"/></svg>