<svg viewBox="0 0 512 512" xmlns="http://www.w3.org/2000/svg"><path d="M416 0c-38.688 0-83.877 34.868-93.904 188.813l-.002-.006a88.194 88.194 0 0 0-64.813-60.232l-78.25-17.703a87.466 87.466 0 0 0-73.25 16.218l-48.375 37.358c-10.49 8.11-12.421 23.188-4.312 33.679 8.11 10.49 23.187 12.42 33.678 4.312l.01-.007 48.374-37.374a40.342 40.342 0 0 1 33.313-7.375l14.875 3.375-35.313 87.341c-10.393 25.497-.624 54.762 23 68.904l83.781 50.592a8.843 8.843 0 0 1 3.844 6.844 8.72 8.72 0 0 1-.312 2.203l-33.281 104.466c-3.654 12.727 3.7 26.005 16.427 29.66l.041.01c2.157.604 4.386.914 6.625.923a23.987 23.987 0 0 0 23.063-17.422l33.312-104.466c6.908-24.309-3.289-50.236-24.906-63.326l-51.844-31.296 41.938-104.794a39.094 39.094 0 0 1 6.406 12.062l13.969 45.937c7.219 23.67 28.687 39.045 53.406 39.139l48.406.156H392c13.221.008 23.956-10.684 24-23.905.062-13.266-10.656-23.484-23.938-23.53l-23.88-.085C370.019 132.875 390.699 47.998 416 47.998c26.51 0 48 93.122 48 207.994s-21.49 207.994-48 207.994c-21.354 0-39.428-60.459-45.66-143.996h-48.438c6.112 98.194 28.971 191.994 94.098 191.994 43.795 0 96-44.413 96-255.992C512 139.208 495.346 0 416 0zM272.156 95.997c26.509-.018 47.984-21.522 47.966-48.031C320.104 21.457 298.599-.018 272.09 0 245.594.018 224.125 21.503 224.125 48v-.001c.016 26.514 21.515 48 48.03 48zm-146 220.853l-19.844 46.28a8.013 8.013 0 0 1-7.344 4.86H24c-13.255 0-24 10.744-24 23.998 0 13.255 10.745 24 24 24h74.968a55.996 55.996 0 0 0 51.5-33.937L164 350.443l-9.563-5.766a87.558 87.558 0 0 1-28.281-27.827z"/></svg>