<svg viewBox="0 0 48 48" xmlns="http://www.w3.org/2000/svg" xmlns:xlink="http://www.w3.org/1999/xlink"><defs><path d="M33.546 14.454c5.272 5.272 5.272 13.82 0 19.092-5.272 5.272-13.82 5.272-19.092 0-5.272-5.272-5.272-13.82 0-19.092 5.272-5.272 13.82-5.272 19.092 0" id="a"/></defs><path opacity=".15" d="M32.132 45.44c4.49.585 4.49 1.535 0 2.12-4.491.586-11.773.586-16.264 0-4.49-.585-4.49-1.535 0-2.12 4.491-.586 11.773-.586 16.264 0" fill="#45413C"/><use fill="#FFE500" xlink:href="#a"/><path d="M25.28 10.56c6.867.707 11.861 6.847 11.154 13.714-.707 6.868-6.847 11.861-13.714 11.155-6.867-.707-11.861-6.847-11.154-13.715A12.5 12.5 0 0 1 22.72 10.56c-7.422.707-12.866 7.297-12.16 14.72.708 7.421 7.298 12.865 14.72 12.158 7.422-.707 12.866-7.297 12.16-14.719A13.5 13.5 0 0 0 25.28 10.56z" fill="#EBCB00"/><use fill="none" stroke="#45413C" stroke-linecap="round" stroke-linejoin="round" xlink:href="#a"/><g stroke-linecap="round" stroke="#45413C" fill="#FFE500" stroke-linejoin="round"><path d="M25.5 3a1.5 1.5 0 0 0-3 0v3a1.5 1.5 0 0 0 3 0zM10.21 8.09a1.5 1.5 0 0 0-2.12 2.12l2.12 2.12a1.5 1.5 0 0 0 2.12-2.12zM3 22.5a1.5 1.5 0 0 0 0 3h3a1.5 1.5 0 0 0 0-3zm5.09 15.29a1.5 1.5 0 0 0 2.12 2.12l2.12-2.12a1.5 1.5 0 0 0-2.12-2.12zM22.5 45a1.5 1.5 0 0 0 3 0v-3a1.5 1.5 0 0 0-3 0zm15.29-5.09a1.5 1.5 0 0 0 2.12-2.12l-2.12-2.12a1.5 1.5 0 0 0-2.12 2.12zM45 25.5a1.5 1.5 0 0 0 0-3h-3a1.5 1.5 0 0 0 0 3zm-5.09-15.29a1.5 1.5 0 0 0-2.12-2.12l-2.12 2.12a1.5 1.5 0 0 0 2.12 2.12z"/></g><path fill="#FFAA54" d="M14 27c0 .55.67 1 1.5 1s1.5-.45 1.5-1-.67-1-1.5-1-1.5.45-1.5 1z"/><g stroke-linecap="round" stroke="#45413C" fill="#FFB0CA" stroke-linejoin="round"><path d="M27.87 29.5a1 1 0 0 1 1 1.25 5 5 0 0 1-9.68 0 1 1 0 0 1 1-1.25z"/><path fill="#FF87AF" d="M24 34.5a5 5 0 0 0 3.94-1.94A7.34 7.34 0 0 0 24 31.5a7.34 7.34 0 0 0-3.94 1.06A5 5 0 0 0 24 34.5z"/><path fill="none" d="M15 25a1.5 1.5 0 0 1 3 0"/></g><path fill="#FFAA54" d="M34 27c0 .55-.67 1-1.5 1s-1.5-.45-1.5-1 .67-1 1.5-1 1.5.45 1.5 1z"/><path d="M33 25a1.5 1.5 0 0 0-3 0" stroke-linecap="round" stroke="#45413C" fill="none" stroke-linejoin="round"/><path fill="#FFF48C" d="M26.828 12.793c1.562.39 1.562 1.024 0 1.414-1.562.39-4.094.39-5.656 0-1.563-.39-1.563-1.024 0-1.414 1.562-.39 4.094-.39 5.656 0"/></svg>