<svg viewBox="0 0 48 48" xmlns="http://www.w3.org/2000/svg" xmlns:xlink="http://www.w3.org/1999/xlink"><defs><path id="a" d="m33.546 14.454c5.272 5.272 5.272 13.82 0 19.092s-13.82 5.272-19.092 0-5.272-13.82 0-19.092 13.82-5.272 19.092 0"/></defs><path d="m32.132 45.44c4.49.585 4.49 1.535 0 2.12-4.491.586-11.773.586-16.264 0-4.49-.585-4.49-1.535 0-2.12 4.491-.586 11.773-.586 16.264 0" fill="#45413c" opacity=".15"/><use fill="#ffe500" xlink:href="#a"/><path d="m25.28 10.56c6.867.707 11.861 6.847 11.154 13.714-.707 6.868-6.847 11.861-13.714 11.155-6.867-.707-11.861-6.847-11.154-13.715a12.5 12.5 0 0 1 11.154-11.154c-7.422.707-12.866 7.297-12.16 14.72.708 7.421 7.298 12.865 14.72 12.158s12.866-7.297 12.16-14.719a13.5 13.5 0 0 0 -12.16-12.159z" fill="#ebcb00"/><use fill="none" stroke="#45413c" stroke-linecap="round" stroke-linejoin="round" xlink:href="#a"/><path d="m25.5 3a1.5 1.5 0 0 0 -3 0v3a1.5 1.5 0 0 0 3 0zm-15.29 5.09a1.5 1.5 0 0 0 -2.12 2.12l2.12 2.12a1.5 1.5 0 0 0 2.12-2.12zm-7.21 14.41a1.5 1.5 0 0 0 0 3h3a1.5 1.5 0 0 0 0-3zm5.09 15.29a1.5 1.5 0 0 0 2.12 2.12l2.12-2.12a1.5 1.5 0 0 0 -2.12-2.12zm14.41 7.21a1.5 1.5 0 0 0 3 0v-3a1.5 1.5 0 0 0 -3 0zm15.29-5.09a1.5 1.5 0 0 0 2.12-2.12l-2.12-2.12a1.5 1.5 0 0 0 -2.12 2.12zm7.21-14.41a1.5 1.5 0 0 0 0-3h-3a1.5 1.5 0 0 0 0 3zm-5.09-15.29a1.5 1.5 0 0 0 -2.12-2.12l-2.12 2.12a1.5 1.5 0 0 0 2.12 2.12z" fill="#ffe500" stroke="#45413c" stroke-linecap="round" stroke-linejoin="round"/><path d="m14 27c0 .55.67 1 1.5 1s1.5-.45 1.5-1-.67-1-1.5-1-1.5.45-1.5 1z" fill="#ffaa54"/><g fill="#ffb0ca" stroke="#45413c" stroke-linecap="round" stroke-linejoin="round"><path d="m27.87 29.5a1 1 0 0 1 1 1.25 5 5 0 0 1 -9.68 0 1 1 0 0 1 1-1.25z"/><path d="m24 34.5a5 5 0 0 0 3.94-1.94 7.34 7.34 0 0 0 -3.94-1.06 7.34 7.34 0 0 0 -3.94 1.06 5 5 0 0 0 3.94 1.94z" fill="#ff87af"/><path d="m15 25a1.5 1.5 0 0 1 3 0" fill="none"/></g><path d="m34 27c0 .55-.67 1-1.5 1s-1.5-.45-1.5-1 .67-1 1.5-1 1.5.45 1.5 1z" fill="#ffaa54"/><path d="m33 25a1.5 1.5 0 0 0 -3 0" fill="none" stroke="#45413c" stroke-linecap="round" stroke-linejoin="round"/><path d="m26.828 12.793c1.562.39 1.562 1.024 0 1.414s-4.094.39-5.656 0c-1.563-.39-1.563-1.024 0-1.414 1.562-.39 4.094-.39 5.656 0" fill="#fff48c"/></svg>