<?xml version="1.0" standalone="no"?>
<!DOCTYPE svg PUBLIC "-//W3C//DTD SVG 20010904//EN"
 "http://www.w3.org/TR/2001/REC-SVG-20010904/DTD/svg10.dtd">
<svg version="1.0" xmlns="http://www.w3.org/2000/svg"
 width="700.000000pt" height="700.000000pt" viewBox="0 0 700.000000 700.000000"
 preserveAspectRatio="xMidYMid meet">
<metadata>
Created by potrace 1.11, written by Peter Selinger 2001-2013
</metadata>
<g transform="translate(0.000000,700.000000) scale(0.100000,-0.100000)"
fill="#000000" stroke="none">
<path d="M3431 6843 c-87 -22 -148 -69 -189 -148 l-27 -50 -2 -286 c-3 -328 0
-347 73 -428 117 -130 316 -127 434 6 66 76 72 109 68 430 l-3 278 -27 51
c-63 119 -198 180 -327 147z"/>
<path d="M1222 5925 c-103 -47 -162 -134 -170 -250 -7 -119 14 -153 235 -375
169 -168 194 -189 248 -209 242 -92 471 156 366 394 -15 35 -70 97 -205 231
-150 150 -195 189 -240 209 -76 33 -160 33 -234 0z"/>
<path d="M5580 5941 c-64 -21 -107 -56 -278 -226 -196 -196 -219 -229 -229
-331 -17 -158 114 -305 277 -310 121 -4 149 13 361 225 111 111 196 204 210
231 34 64 34 195 1 258 -53 100 -137 153 -247 158 -38 2 -81 0 -95 -5z"/>
<path d="M3340 5537 c-3 -3 -37 -7 -76 -10 -269 -22 -614 -146 -874 -314 -509
-330 -844 -870 -918 -1478 -9 -76 -9 -391 0 -470 78 -677 500 -1281 1106
-1584 205 -103 418 -172 598 -196 27 -3 76 -10 109 -15 64 -9 433 -6 475 4 14
3 45 9 70 12 74 9 279 63 380 101 194 72 444 215 585 334 82 70 247 239 306
314 233 297 388 670 426 1025 10 93 10 394 1 475 -95 789 -633 1451 -1381
1700 -113 38 -219 63 -377 90 -43 8 -424 18 -430 12z"/>
<path d="M320 3764 c-63 -29 -93 -54 -125 -104 -95 -149 -42 -340 115 -419
l61 -30 272 -1 c313 -1 346 5 420 70 134 119 135 321 1 439 -75 66 -98 70
-412 70 l-277 1 -55 -26z"/>
<path d="M6003 3764 c-186 -90 -225 -341 -73 -477 80 -72 101 -76 410 -77 321
-1 342 4 426 87 139 138 106 362 -67 458 l-54 30 -295 2 -295 2 -52 -25z"/>
<path d="M1527 1906 c-49 -20 -86 -52 -241 -207 -206 -206 -227 -237 -234
-344 -3 -60 0 -79 22 -128 67 -151 234 -217 382 -152 47 21 90 58 239 208 124
125 188 197 204 230 51 106 34 229 -46 317 -56 62 -114 90 -200 96 -56 4 -78
1 -126 -20z"/>
<path d="M5267 1913 c-62 -21 -139 -90 -166 -149 -34 -71 -38 -157 -10 -229
20 -53 42 -80 203 -242 219 -221 245 -238 366 -238 64 0 94 5 120 19 63 34
106 74 136 128 26 47 29 62 29 138 0 70 -4 93 -24 130 -37 69 -375 404 -436
431 -65 29 -156 34 -218 12z"/>
<path d="M3437 1158 c-60 -13 -112 -44 -156 -94 -68 -77 -73 -108 -69 -436 l3
-283 30 -50 c16 -27 37 -56 47 -63 9 -7 24 -19 32 -28 21 -21 96 -54 124 -54
13 0 33 -5 44 -11 15 -8 19 -8 14 0 -5 7 5 11 28 11 48 0 114 30 170 79 26 22
45 41 42 41 -3 0 6 21 19 48 24 47 24 47 22 342 -2 280 -3 297 -24 340 -22 47
-81 109 -121 130 -35 17 -114 38 -142 38 -14 -1 -42 -5 -63 -10z"/>
<path d="M2907 399 c7 -7 15 -10 18 -7 3 3 -2 9 -12 12 -14 6 -15 5 -6 -5z"/>
<path d="M2316 353 c-6 -14 -5 -15 5 -6 7 7 10 15 7 18 -3 3 -9 -2 -12 -12z"/>
<path d="M4156 353 c-6 -14 -5 -15 5 -6 7 7 10 15 7 18 -3 3 -9 -2 -12 -12z"/>
<path d="M4855 329 c-4 -6 -5 -12 -2 -15 2 -3 7 2 10 11 7 17 1 20 -8 4z"/>
<path d="M3036 287 c3 -10 9 -15 12 -12 3 3 0 11 -7 18 -10 9 -11 8 -5 -6z"/>
<path d="M3114 289 c-3 -6 -2 -15 3 -20 5 -5 9 -1 9 11 0 23 -2 24 -12 9z"/>
<path d="M2304 282 c4 -3 14 -7 22 -8 9 -1 13 0 10 4 -4 3 -14 7 -22 8 -9 1
-13 0 -10 -4z"/>
<path d="M3860 280 c-9 -6 -10 -10 -3 -10 6 0 15 5 18 10 8 12 4 12 -15 0z"/>
<path d="M4780 286 c0 -2 8 -10 18 -17 15 -13 16 -12 3 4 -13 16 -21 21 -21
13z"/>
<path d="M4846 282 c-3 -5 1 -9 9 -9 8 0 12 4 9 9 -3 4 -7 8 -9 8 -2 0 -6 -4
-9 -8z"/>
<path d="M4236 253 c-6 -14 -5 -15 5 -6 7 7 10 15 7 18 -3 3 -9 -2 -12 -12z"/>
<path d="M1887 239 c7 -7 15 -10 18 -7 3 3 -2 9 -12 12 -14 6 -15 5 -6 -5z"/>
<path d="M5075 229 c-4 -6 -5 -12 -2 -15 2 -3 7 2 10 11 7 17 1 20 -8 4z"/>
<path d="M4790 206 c0 -2 7 -7 16 -10 8 -3 12 -2 9 4 -6 10 -25 14 -25 6z"/>
<path d="M3275 160 c-3 -5 -1 -10 4 -10 6 0 11 5 11 10 0 6 -2 10 -4 10 -3 0
-8 -4 -11 -10z"/>
<path d="M4656 158 c3 -5 10 -6 15 -3 13 9 11 12 -6 12 -8 0 -12 -4 -9 -9z"/>
<path d="M5075 160 c3 -5 8 -10 11 -10 2 0 4 5 4 10 0 6 -5 10 -11 10 -5 0 -7
-4 -4 -10z"/>
<path d="M3326 122 c-3 -5 1 -9 9 -9 8 0 12 4 9 9 -3 4 -7 8 -9 8 -2 0 -6 -4
-9 -8z"/>
<path d="M3807 119 c7 -7 15 -10 18 -7 3 3 -2 9 -12 12 -14 6 -15 5 -6 -5z"/>
<path d="M4310 100 c0 -5 5 -10 11 -10 5 0 7 5 4 10 -3 6 -8 10 -11 10 -2 0
-4 -4 -4 -10z"/>
<path d="M3270 56 c0 -2 8 -10 18 -17 15 -13 16 -12 3 4 -13 16 -21 21 -21 13z"/>
</g>
</svg>
